<?xml version="1.0" encoding="UTF-8"?>
<svg width="198px" height="56px" viewBox="0 0 198 56" version="1.1" xmlns="http://www.w3.org/2000/svg" xmlns:xlink="http://www.w3.org/1999/xlink">
    <!-- Generator: Sketch 49.3 (51167) - http://www.bohemiancoding.com/sketch -->
    <title>pushpinIcon_Type_Alpha1</title>
    <desc>Created with Sketch.</desc>
    <defs></defs>
    <g id="Page-1" stroke="none" stroke-width="1" fill="none" fill-rule="evenodd">
        <g id="Pushpin-Icon-Concept" transform="translate(-221.000000, -186.000000)" fill="#102542">
            <path d="M301.72,205 C305.89,205 308.62,207.4 308.62,211.03 C308.62,214.87 305.86,217.15 301.69,217.15 L297.67,217.15 L297.67,223 L294.04,223 L294.04,205 L301.72,205 Z M304.87,211.06 C304.87,209.11 303.49,208.18 301.51,208.18 L297.67,208.18 L297.67,214 L301.51,214 C303.49,214 304.87,213.07 304.87,211.06 Z M320.88,223.42 C316.14,223.42 313.14,219.97 313.14,215.32 L313.14,205 L316.77,205 L316.77,215.32 C316.77,217.93 318.15,219.91 320.88,219.91 C323.7,219.91 324.99,217.93 324.99,215.32 L324.99,205 L328.62,205 L328.62,215.32 C328.62,219.97 325.77,223.42 320.88,223.42 Z M335.33,218.32 C335.33,218.32 337.64,220.06 340.37,220.06 C342.29,220.06 343.13,219.25 343.13,218.05 C343.13,216.88 342.44,216.28 339.53,215.41 C335.63,214.27 333.59,212.83 333.59,209.95 C333.59,206.8 335.87,204.61 340.34,204.61 C345.02,204.61 346.85,206.47 346.85,206.47 L344.9,209.44 C344.9,209.44 343.1,207.94 340.34,207.94 C338.57,207.94 337.67,208.63 337.67,209.74 C337.67,210.82 338.57,211.3 341.12,212.08 C345.29,213.25 347.3,214.81 347.3,217.72 C347.3,220.87 345.11,223.39 340.49,223.39 C335.72,223.39 333.35,221.08 333.35,221.08 L335.33,218.32 Z M367.81,223.03 L364.15,223.03 L364.15,215.53 L355.87,215.53 L355.87,223.03 L352.24,223.03 L352.24,205 L355.87,205 L355.87,212.56 L364.15,212.56 L364.15,205 L367.81,205 L367.81,223.03 Z M381.57,205 C385.74,205 388.47,207.4 388.47,211.03 C388.47,214.87 385.71,217.15 381.54,217.15 L377.52,217.15 L377.52,223 L373.89,223 L373.89,205 L381.57,205 Z M384.72,211.06 C384.72,209.11 383.34,208.18 381.36,208.18 L377.52,208.18 L377.52,214 L381.36,214 C383.34,214 384.72,213.07 384.72,211.06 Z M396.86,223 L393.23,223 L393.23,205 L396.86,205 L396.86,223 Z M247.05,213 L247.05,199 L253.59,199 C258,199 261,201.31 261,205.87 C261,210.43 258,212.71 253.59,212.71 L250.74,212.71 L250.74,213 L250.75,213 L250.75,231.44 L247.06,231.44 L247.06,226.71 L244.21,226.71 C239.8,226.71 236.8,224.43 236.8,219.87 C236.8,215.31 239.8,213 244.21,213 L247.05,213 Z M418.9,223 L416.11,223 L406.6,211.33 L406.6,223 L402.97,223 L402.97,205 L405.76,205 L415.27,216.55 L415.27,205 L418.9,205 L418.9,223 Z M249,242 C233.536027,242 221,229.463973 221,214 C221,198.536027 233.536027,186 249,186 C264.463973,186 277,198.536027 277,214 C277,229.463973 264.463973,242 249,242 Z M249,238 C262.254834,238 273,227.254834 273,214 C273,200.745166 262.254834,190 249,190 C235.745166,190 225,200.745166 225,214 C225,227.254834 235.745166,238 249,238 Z M247.06,216.27 L247.06,223.44 L244.42,223.44 C242.17,223.44 240.55,222.24 240.55,219.87 C240.55,217.47 242.17,216.27 244.42,216.27 L247.06,216.27 Z M250.74,202.27 L253.38,202.27 C255.63,202.27 257.25,203.47 257.25,205.87 C257.25,208.24 255.63,209.44 253.38,209.44 L250.74,209.44 L250.74,202.27 Z" id="pushpinIcon_Type_Alpha1"></path>
        </g>
    </g>
</svg>