<?xml version="1.0" encoding="UTF-8"?>
<svg width="512px" height="512px" viewBox="0 0 56 56" version="1.1" xmlns="http://www.w3.org/2000/svg" xmlns:xlink="http://www.w3.org/1999/xlink">
    <!-- Generator: Sketch 49.3 (51167) - http://www.bohemiancoding.com/sketch -->
    <title>pushpinIcon_Standalone_Alpha1</title>
    <desc>Created with Sketch.</desc>
    <defs></defs>
    <g id="Page-1" stroke="none" stroke-width="1" fill="none" fill-rule="evenodd">
        <g id="Pushpin-Icon-Concept" transform="translate(-292.000000, -186.000000)" fill="#102542">
            <path d="M318.05,213 L318.05,199 L324.59,199 C329,199 332,201.31 332,205.87 C332,210.43 329,212.71 324.59,212.71 L321.74,212.71 L321.74,213 L321.75,213 L321.75,231.44 L318.06,231.44 L318.06,226.71 L315.21,226.71 C310.8,226.71 307.8,224.43 307.8,219.87 C307.8,215.31 310.8,213 315.21,213 L318.05,213 Z M320,242 C304.536027,242 292,229.463973 292,214 C292,198.536027 304.536027,186 320,186 C335.463973,186 348,198.536027 348,214 C348,229.463973 335.463973,242 320,242 Z M320,238 C333.254834,238 344,227.254834 344,214 C344,200.745166 333.254834,190 320,190 C306.745166,190 296,200.745166 296,214 C296,227.254834 306.745166,238 320,238 Z M318.06,216.27 L318.06,223.44 L315.42,223.44 C313.17,223.44 311.55,222.24 311.55,219.87 C311.55,217.47 313.17,216.27 315.42,216.27 L318.06,216.27 Z M321.74,202.27 L324.38,202.27 C326.63,202.27 328.25,203.47 328.25,205.87 C328.25,208.24 326.63,209.44 324.38,209.44 L321.74,209.44 L321.74,202.27 Z" id="pushpinIcon_Standalone_Alpha1"></path>
        </g>
    </g>
</svg>