<?xml version="1.0" encoding="UTF-8"?>
<svg width="29px" height="34px" viewBox="0 0 29 34" version="1.1" xmlns="http://www.w3.org/2000/svg" xmlns:xlink="http://www.w3.org/1999/xlink">
    <!-- Generator: Sketch 50.2 (55047) - http://www.bohemiancoding.com/sketch -->
    <title>iconMac</title>
    <desc>Created with Sketch.</desc>
    <defs></defs>
    <g id="Landing-Page" stroke="none" stroke-width="1" fill="none" fill-rule="evenodd">
        <g transform="translate(-556.000000, -528.000000)" fill="#FFFFFF" fill-rule="nonzero" id="Group-31">
            <g transform="translate(396.000000, 444.000000)">
                <g id="Group-6" transform="translate(84.000000, 73.000000)">
                    <g id="Group-24">
                        <g id="Group-18" transform="translate(60.000000, 0.000000)">
                            <path d="M43.6140309,37.165841 C43.1113195,38.327207 42.5162733,39.3962382 41.8268405,40.3790903 C40.887078,41.7189701 40.1176217,42.6464214 39.5246274,43.1614441 C38.6053837,44.00682 37.6204797,44.4397674 36.5658117,44.46439 C35.8086667,44.46439 34.8955786,44.2489423 33.8327031,43.8118911 C32.7663393,43.3768919 31.7863598,43.1614441 30.8903024,43.1614441 C29.9505398,43.1614441 28.9426547,43.3768919 27.8645952,43.8118911 C26.7848942,44.2489423 25.9151008,44.4767013 25.2500855,44.499272 C24.2387122,44.5423616 23.2306219,44.0971029 22.2243783,43.1614441 C21.5821388,42.60128 20.7788265,41.6409986 19.8164932,40.2805999 C18.7839855,38.8278665 17.9351214,37.1432703 17.270106,35.2227075 C16.5578973,33.1482534 16.2008696,31.1394596 16.2008696,29.1946846 C16.2008696,26.9669549 16.6822414,25.0455713 17.6464214,23.4354585 C18.4041819,22.1421564 19.4122722,21.12196 20.6739752,20.3730226 C21.9356783,19.6240852 23.2989496,19.2424349 24.7670721,19.2180175 C25.5703844,19.2180175 26.6238213,19.4665005 27.9329229,19.9548488 C29.2383311,20.4448385 30.0765254,20.6933216 30.4440177,20.6933216 C30.7187649,20.6933216 31.6499096,20.4027749 33.2284234,19.8235282 C34.7211686,19.2863452 35.9810249,19.063921 37.0131222,19.1515364 C39.8098392,19.3772436 41.9109678,20.4797205 43.3083003,22.4659436 C40.8070545,23.9814646 39.5697689,26.1041379 39.5943915,28.8271923 C39.6169622,30.9482241 40.3864184,32.7132542 41.8986565,34.1146905 C42.5839855,34.7651375 43.349338,35.2678489 44.2008696,35.6248766 C44.0162001,36.1604182 43.8212711,36.673389 43.6140309,37.165841 Z M37.1998436,11.9256241 C37.1998436,13.5880805 36.5924862,15.1403097 35.381875,16.5770384 C33.9209341,18.2850261 32.1538521,19.271982 30.2375983,19.116244 C30.2131809,18.916801 30.1990229,18.7068933 30.1990229,18.4863159 C30.1990229,16.890361 30.8937906,15.1823733 32.127588,13.7858615 C32.7435634,13.0787825 33.5269725,12.4908564 34.4769944,12.0218574 C35.4249645,11.5598554 36.3216376,11.3043548 37.1649616,11.2606087 C37.1895842,11.4828482 37.1998436,11.7051082 37.1998436,11.9256036 L37.1998436,11.9256241 Z" id="iconMac"></path>
                        </g>
                    </g>
                </g>
            </g>
        </g>
    </g>
</svg>