<?xml version="1.0" encoding="UTF-8"?>
<svg width="32px" height="32px" viewBox="0 0 32 32" version="1.1" xmlns="http://www.w3.org/2000/svg" xmlns:xlink="http://www.w3.org/1999/xlink">
    <!-- Generator: Sketch 50.2 (55047) - http://www.bohemiancoding.com/sketch -->
    <title>iconGithub</title>
    <desc>Created with Sketch.</desc>
    <defs></defs>
    <g id="Landing-Page" stroke="none" stroke-width="1" fill="none" fill-rule="evenodd">
        <g transform="translate(-1322.000000, -531.000000)" fill="#FFFFFF" fill-rule="nonzero" id="Group-31">
            <g transform="translate(396.000000, 444.000000)">
                <g id="Group-25" transform="translate(852.000000, 73.000000)">
                    <g id="Group-17" transform="translate(60.000000, 0.000000)">
                        <path d="M30,14 C21.16,14 14,21.16 14,30 C14,37.08 18.58,43.06 24.94,45.18 C25.74,45.32 26.04,44.84 26.04,44.42 C26.04,44.04 26.02,42.78 26.02,41.44 C22,42.18 20.96,40.46 20.64,39.56 C20.46,39.1 19.68,37.68 19,37.3 C18.44,37 17.64,36.26 18.98,36.24 C20.24,36.22 21.14,37.4 21.44,37.88 C22.88,40.3 25.18,39.62 26.1,39.2 C26.24,38.16 26.66,37.46 27.12,37.06 C23.56,36.66 19.84,35.28 19.84,29.16 C19.84,27.42 20.46,25.98 21.48,24.86 C21.32,24.46 20.76,22.82 21.64,20.62 C21.64,20.62 22.98,20.2 26.04,22.26 C27.32,21.9 28.68,21.72 30.04,21.72 C31.4,21.72 32.76,21.9 34.04,22.26 C37.1,20.18 38.44,20.62 38.44,20.62 C39.32,22.82 38.76,24.46 38.6,24.86 C39.62,25.98 40.24,27.4 40.24,29.16 C40.24,35.3 36.5,36.66 32.94,37.06 C33.52,37.56 34.02,38.52 34.02,40.02 C34.02,42.16 34,43.88 34,44.42 C34,44.84 34.3,45.34 35.1,45.18 C41.6128924,42.9813126 45.9982426,36.8740083 46,30 C46,21.16 38.84,14 30,14 Z" id="iconGithub"></path>
                    </g>
                </g>
            </g>
        </g>
    </g>
</svg>