<?xml version="1.0" encoding="UTF-8"?>
<svg width="169px" height="48px" viewBox="0 0 169 48" version="1.1" xmlns="http://www.w3.org/2000/svg" xmlns:xlink="http://www.w3.org/1999/xlink">
    <!-- Generator: Sketch 50.2 (55047) - http://www.bohemiancoding.com/sketch -->
    <title>iconPushpinLogo</title>
    <desc>Created with Sketch.</desc>
    <defs></defs>
    <g id="Landing-Page" stroke="none" stroke-width="1" fill="none" fill-rule="evenodd">
        <g transform="translate(-870.000000, -216.000000)" fill="#102542" id="iconPushpinLogo">
            <path d="M938.932188,232.285714 C942.493229,232.285714 944.824558,234.342857 944.824558,237.454286 C944.824558,240.745714 942.46761,242.7 938.906569,242.7 L935.473623,242.7 L935.473623,247.714286 L932.373724,247.714286 L932.373724,232.285714 L938.932188,232.285714 Z M941.622183,237.48 C941.622183,235.808571 940.443709,235.011429 938.752855,235.011429 L935.473623,235.011429 L935.473623,240 L938.752855,240 C940.443709,240 941.622183,239.202857 941.622183,237.48 Z M955.294189,248.074286 C951.246387,248.074286 948.684487,245.117143 948.684487,241.131429 L948.684487,232.285714 L951.784386,232.285714 L951.784386,241.131429 C951.784386,243.368571 952.96286,245.065714 955.294189,245.065714 C957.702375,245.065714 958.803992,243.368571 958.803992,241.131429 L958.803992,232.285714 L961.903891,232.285714 L961.903891,241.131429 C961.903891,245.117143 959.470086,248.074286 955.294189,248.074286 Z M967.634007,243.702857 C967.634007,243.702857 969.60667,245.194286 971.937999,245.194286 C973.577615,245.194286 974.294947,244.5 974.294947,243.471429 C974.294947,242.468571 973.70571,241.954286 971.220667,241.208571 C967.890197,240.231429 966.148105,238.997143 966.148105,236.528571 C966.148105,233.828571 968.095149,231.951429 971.91238,231.951429 C975.908944,231.951429 977.471703,233.545714 977.471703,233.545714 L975.806468,236.091429 C975.806468,236.091429 974.269328,234.805714 971.91238,234.805714 C970.400859,234.805714 969.632289,235.397143 969.632289,236.348571 C969.632289,237.274286 970.400859,237.685714 972.578474,238.354286 C976.139515,239.357143 977.855988,240.694286 977.855988,243.188571 C977.855988,245.888571 975.985801,248.048571 972.040475,248.048571 C967.967054,248.048571 965.943153,246.068571 965.943153,246.068571 L967.634007,243.702857 Z M995.370844,247.74 L992.245326,247.74 L992.245326,241.311429 L985.174482,241.311429 L985.174482,247.74 L982.074583,247.74 L982.074583,232.285714 L985.174482,232.285714 L985.174482,238.765714 L992.245326,238.765714 L992.245326,232.285714 L995.370844,232.285714 L995.370844,247.74 Z M1007.12142,232.285714 C1010.68247,232.285714 1013.01379,234.342857 1013.01379,237.454286 C1013.01379,240.745714 1010.65685,242.7 1007.09581,242.7 L1003.66286,242.7 L1003.66286,247.714286 L1000.56296,247.714286 L1000.56296,232.285714 L1007.12142,232.285714 Z M1009.81142,237.48 C1009.81142,235.808571 1008.63295,235.011429 1006.94209,235.011429 L1003.66286,235.011429 L1003.66286,240 L1006.94209,240 C1008.63295,240 1009.81142,239.202857 1009.81142,237.48 Z M1020.17858,247.714286 L1017.07868,247.714286 L1017.07868,232.285714 L1020.17858,232.285714 L1020.17858,247.714286 Z M892.245831,239.142857 L892.245831,227.142857 L897.830773,227.142857 C901.596766,227.142857 904.158666,229.122857 904.158666,233.031429 C904.158666,236.94 901.596766,238.894286 897.830773,238.894286 L895.396968,238.894286 L895.396968,239.142857 L895.405508,239.142857 L895.405508,254.948571 L892.254371,254.948571 L892.254371,250.894286 L889.820566,250.894286 C886.054573,250.894286 883.492673,248.94 883.492673,245.031429 C883.492673,241.122857 886.054573,239.142857 889.820566,239.142857 L892.245831,239.142857 Z M1039,247.714286 L1036.61743,247.714286 L1028.49621,237.711429 L1028.49621,247.714286 L1025.39631,247.714286 L1025.39631,232.285714 L1027.77888,232.285714 L1035.9001,242.185714 L1035.9001,232.285714 L1039,232.285714 L1039,247.714286 Z M893.911066,264 C880.705349,264 870,253.254834 870,240 C870,226.745166 880.705349,216 893.911066,216 C907.116783,216 917.822132,226.745166 917.822132,240 C917.822132,253.254834 907.116783,264 893.911066,264 Z M893.911066,260.571429 C905.230252,260.571429 914.406266,251.361286 914.406266,240 C914.406266,228.638714 905.230252,219.428571 893.911066,219.428571 C882.59188,219.428571 873.415867,228.638714 873.415867,240 C873.415867,251.361286 882.59188,260.571429 893.911066,260.571429 Z M892.254371,241.945714 L892.254371,248.091429 L889.999899,248.091429 C888.078474,248.091429 886.695048,247.062857 886.695048,245.031429 C886.695048,242.974286 888.078474,241.945714 889.999899,241.945714 L892.254371,241.945714 Z M895.396968,229.945714 L897.65144,229.945714 C899.572865,229.945714 900.956291,230.974286 900.956291,233.031429 C900.956291,235.062857 899.572865,236.091429 897.65144,236.091429 L895.396968,236.091429 L895.396968,229.945714 Z"></path>
        </g>
    </g>
</svg>